<svg width="39" height="51" viewBox="0 0 39 51" fill="none" xmlns="http://www.w3.org/2000/svg">
<g id="Silver Medal" filter="url(#filter0_d_543_6619)">
<path id="Rectangle 8" d="M14.998 28.0876L19.6169 30.7543L10.2375 47L7.54538 40.996L14.998 28.0876Z" fill="#418ED6"/>
<path id="Rectangle 9" d="M14.998 28.0876L10.3792 25.4209L0.999748 41.6666L7.54538 40.996L14.998 28.0876Z" fill="#2B63A6"/>
<path id="Rectangle 10" d="M21.5879 28.0876L16.969 30.7543L26.3485 47L29.0406 40.996L21.5879 28.0876Z" fill="#2B63A6"/>
<path id="Rectangle 11" d="M21.5879 28.0876L26.2068 25.4209L35.5862 41.6666L29.0406 40.996L21.5879 28.0876Z" fill="#418ED6"/>
<circle id="Ellipse 3" cx="18.2856" cy="16.9018" r="16.0419" fill="#E3E3E3" stroke="#404040" stroke-width="0.280189"/>
<circle id="Ellipse 4" cx="18.2859" cy="16.9018" r="12.4128" fill="#595959"/>
<g id="Mask Group">
<mask id="mask0_543_6619" style="mask-type:alpha" maskUnits="userSpaceOnUse" x="6" y="5" width="26" height="26">
<circle id="Ellipse 4_2" cx="18.9486" cy="18.227" r="12.4417" fill="#C28B37"/>
</mask>
<g mask="url(#mask0_543_6619)">
<circle id="Ellipse 3_2" cx="18.2864" cy="16.9019" r="12.4417" fill="url(#paint0_linear_543_6619)"/>
</g>
</g>
<path id="Vector" d="M18.3523 8.2464L21.0362 13.6141L26.4039 14.2851L22.7181 18.4182L23.7201 24.3495L18.3523 21.6657L12.9846 24.3495L13.9956 18.4182L10.3008 14.2851L15.6685 13.6141L18.3523 8.2464Z" fill="url(#paint1_linear_543_6619)"/>
</g>
<defs>
<filter id="filter0_d_543_6619" x="0.780472" y="0.50026" width="38.0984" height="49.7927" filterUnits="userSpaceOnUse" color-interpolation-filters="sRGB">
<feFlood flood-opacity="0" result="BackgroundImageFix"/>
<feColorMatrix in="SourceAlpha" type="matrix" values="0 0 0 0 0 0 0 0 0 0 0 0 0 0 0 0 0 0 127 0" result="hardAlpha"/>
<feOffset dx="1.53669" dy="1.53669"/>
<feGaussianBlur stdDeviation="0.878111"/>
<feComposite in2="hardAlpha" operator="out"/>
<feColorMatrix type="matrix" values="0 0 0 0 0 0 0 0 0 0 0 0 0 0 0 0 0 0 0.3 0"/>
<feBlend mode="normal" in2="BackgroundImageFix" result="effect1_dropShadow_543_6619"/>
<feBlend mode="normal" in="SourceGraphic" in2="effect1_dropShadow_543_6619" result="shape"/>
</filter>
<linearGradient id="paint0_linear_543_6619" x1="18.2864" y1="4.46014" x2="18.2864" y2="29.3436" gradientUnits="userSpaceOnUse">
<stop stop-color="#9CA1A3"/>
<stop offset="1" stop-color="#9CA1A3" stop-opacity="0"/>
</linearGradient>
<linearGradient id="paint1_linear_543_6619" x1="18.3523" y1="8.2464" x2="18.3523" y2="24.3495" gradientUnits="userSpaceOnUse">
<stop stop-color="#F1F5F5"/>
<stop offset="0.0001" stop-color="white"/>
<stop offset="1" stop-color="#F1F5F5"/>
</linearGradient>
</defs>
</svg>
