<svg width="18" height="19" viewBox="0 0 18 19" fill="none" xmlns="http://www.w3.org/2000/svg">
<path d="M6.75 13.4375C6.43934 13.4375 6.1875 13.6893 6.1875 14C6.1875 14.3107 6.43934 14.5625 6.75 14.5625H11.25C11.5607 14.5625 11.8125 14.3107 11.8125 14C11.8125 13.6893 11.5607 13.4375 11.25 13.4375H6.75Z" fill="white"/>
<path fill-rule="evenodd" clip-rule="evenodd" d="M9 1.4375C8.46891 1.4375 7.9864 1.58961 7.46292 1.84418C6.95689 2.09026 6.37232 2.45307 5.64214 2.90624L4.09221 3.86817C3.40131 4.29696 2.84808 4.6403 2.42168 4.96686C1.98011 5.30502 1.64096 5.64942 1.39598 6.09697C1.15152 6.54359 1.04143 7.01881 0.988642 7.58053C0.937489 8.12491 0.937494 8.79059 0.9375 9.62542V10.8349C0.93749 12.2628 0.937481 13.3899 1.05203 14.2712C1.16953 15.1752 1.41642 15.9051 1.97427 16.4821C2.53469 17.0618 3.24784 17.3207 4.1307 17.4435C4.98637 17.5625 6.07917 17.5625 7.45639 17.5625H10.5436C11.9208 17.5625 13.0136 17.5625 13.8693 17.4435C14.7522 17.3207 15.4653 17.0618 16.0257 16.4821C16.5836 15.9051 16.8305 15.1752 16.948 14.2712C17.0625 13.3899 17.0625 12.2628 17.0625 10.8349V9.62541C17.0625 8.7906 17.0625 8.12489 17.0114 7.58053C16.9586 7.01881 16.8485 6.54359 16.604 6.09697C16.359 5.64942 16.0199 5.30502 15.5783 4.96686C15.1519 4.6403 14.5987 4.29696 13.9078 3.86819L12.3578 2.90624C11.6277 2.45307 11.0431 2.09026 10.5371 1.84418C10.0136 1.58961 9.53109 1.4375 9 1.4375ZM6.20965 3.87809C6.97147 3.40528 7.50712 3.07365 7.95491 2.8559C8.39117 2.64374 8.70014 2.5625 9 2.5625C9.29987 2.5625 9.60883 2.64374 10.0451 2.8559C10.4929 3.07365 11.0285 3.40528 11.7904 3.87809L13.2904 4.80903C14.011 5.25627 14.5169 5.57101 14.8943 5.86002C15.2615 6.14123 15.4728 6.37329 15.6172 6.63714C15.7621 6.90192 15.8467 7.21149 15.8913 7.68578C15.9369 8.17144 15.9375 8.78436 15.9375 9.65294V10.7937C15.9375 12.2719 15.9364 13.3259 15.8324 14.1262C15.7302 14.9122 15.5377 15.3683 15.2169 15.7001C14.8986 16.0293 14.4654 16.2248 13.7143 16.3293C12.9451 16.4362 11.9306 16.4375 10.5 16.4375H7.5C6.06935 16.4375 5.05487 16.4362 4.28567 16.3293C3.53464 16.2248 3.10135 16.0293 2.78309 15.7001C2.46226 15.3683 2.26981 14.9122 2.16764 14.1262C2.06362 13.3259 2.0625 12.2719 2.0625 10.7937V9.65294C2.0625 8.78436 2.06307 8.17144 2.10871 7.68578C2.15328 7.21149 2.23789 6.90192 2.38282 6.63714C2.52724 6.37329 2.73849 6.14123 3.10569 5.86002C3.48307 5.57101 3.98902 5.25627 4.70965 4.80903L6.20965 3.87809Z" fill="white"/>
</svg>
